<?xml version="1.0" standalone="no"?>
<!DOCTYPE svg PUBLIC "-//W3C//DTD SVG 20010904//EN"
 "http://www.w3.org/TR/2001/REC-SVG-20010904/DTD/svg10.dtd">
<svg version="1.0" xmlns="http://www.w3.org/2000/svg"
 width="1179.000000pt" height="729.000000pt" viewBox="0 0 1179.000000 729.000000"
 preserveAspectRatio="xMidYMid meet">
<metadata>
Created by potrace 1.16, written by Peter Selinger 2001-2019
</metadata>
<g transform="translate(0.000000,729.000000) scale(0.100000,-0.100000)"
fill="#000000" stroke="none">
<path d="M6358 6533 c7 -3 16 -2 19 1 4 3 -2 6 -13 5 -11 0 -14 -3 -6 -6z"/>
<path d="M6448 6343 c6 -2 18 -2 25 0 6 3 1 5 -13 5 -14 0 -19 -2 -12 -5z"/>
<path d="M5727 6193 c-13 -12 -7 -43 8 -43 18 0 30 -26 29 -65 0 -16 -1 -82
-2 -146 -2 -108 -4 -117 -22 -122 -12 -3 -20 -14 -20 -26 0 -20 4 -21 166 -21
l165 0 -3 52 c-2 41 -7 54 -20 56 -12 2 -21 -5 -27 -21 -12 -30 -29 -37 -91
-37 -60 0 -72 14 -68 82 l3 53 73 3 c73 3 73 3 70 30 -3 25 -7 27 -53 30 -91
4 -95 7 -95 56 0 57 15 68 87 64 52 -3 59 -6 71 -30 7 -16 19 -28 27 -28 31 0
48 83 23 108 -13 13 -309 18 -321 5z"/>
<path d="M5354 6151 c-34 -9 -68 -22 -77 -29 -21 -18 -11 -42 17 -42 18 0 25
-9 34 -37 63 -215 62 -216 -83 -73 l-114 112 -48 -7 c-57 -8 -89 -31 -72 -52
6 -7 17 -13 25 -13 19 0 29 -23 59 -135 45 -168 44 -164 29 -180 -8 -7 -14
-23 -14 -35 0 -19 4 -21 33 -15 79 16 127 37 127 55 0 12 -8 20 -22 22 -12 2
-28 14 -34 28 -12 25 -44 149 -44 169 0 27 32 4 133 -94 109 -106 114 -110
155 -98 21 5 23 10 19 47 -2 23 -17 86 -31 141 -43 158 -46 178 -30 196 15 16
20 60 7 58 -5 -1 -36 -9 -69 -18z"/>
<path d="M6360 6137 c0 -14 6 -30 14 -36 14 -12 12 -34 -19 -146 -9 -33 -20
-76 -24 -95 -13 -56 -21 -69 -44 -72 -16 -2 -22 -10 -22 -28 0 -21 7 -26 55
-38 30 -7 64 -16 76 -19 30 -7 40 25 15 48 -15 14 -17 25 -11 58 10 58 24 71
62 60 69 -19 78 -32 78 -114 0 -65 3 -76 22 -89 35 -25 68 -21 68 8 0 14 -4
27 -9 31 -6 3 -7 27 -4 54 4 35 1 58 -11 81 -17 35 -14 50 10 50 20 0 54 59
54 93 0 44 -30 85 -78 108 -41 20 -59 26 -157 50 -22 5 -48 12 -57 15 -14 4
-18 0 -18 -19z m213 -105 c23 -20 22 -63 -4 -91 -18 -19 -27 -21 -67 -15 -26
4 -51 9 -55 11 -12 7 2 83 20 109 12 20 18 21 51 11 20 -6 45 -17 55 -25z"/>
<path d="M4655 5896 c-57 -38 -62 -55 -22 -74 25 -12 27 -17 27 -76 0 -34 -3
-65 -6 -69 -5 -5 -49 17 -64 33 -3 3 -14 10 -25 16 -13 7 -21 24 -23 48 -4 43
-14 45 -75 11 -76 -43 -89 -81 -29 -83 42 -1 235 -120 246 -150 3 -9 11 -25
18 -34 10 -13 9 -22 -2 -43 -11 -20 -11 -28 -1 -38 9 -9 19 -8 44 7 18 10 46
25 62 34 55 31 57 54 5 62 -28 4 -38 13 -56 50 -21 40 -23 60 -24 172 0 92 3
127 13 131 9 3 9 7 -2 20 -18 23 -28 21 -86 -17z"/>
<path d="M7065 5882 c-77 -8 -152 -73 -185 -160 -25 -66 -25 -105 0 -160 33
-74 109 -121 193 -122 55 0 61 5 101 79 l29 54 -29 23 c-49 40 -83 50 -102 31
-15 -15 -14 -18 6 -40 20 -21 21 -28 11 -50 -22 -48 -73 -44 -123 10 -58 62
-18 196 76 256 47 29 108 17 152 -32 14 -15 17 -29 12 -54 -5 -27 -3 -36 10
-41 30 -11 43 -6 58 25 14 28 14 33 -5 66 -41 73 -130 123 -204 115z"/>
<path d="M7883 5873 c9 -2 23 -2 30 0 6 3 -1 5 -18 5 -16 0 -22 -2 -12 -5z"/>
<path d="M7537 5574 c-4 -4 -4 -17 -1 -30 3 -12 -9 -73 -26 -136 -26 -92 -38
-120 -67 -149 -26 -28 -42 -36 -65 -35 -17 0 -33 -4 -35 -11 -2 -6 21 -36 53
-67 45 -45 59 -54 70 -45 9 8 13 23 9 43 -4 27 0 35 34 62 22 17 73 41 113 53
40 13 83 27 96 32 13 5 43 9 67 9 60 0 59 19 -1 73 -54 48 -76 52 -84 17 -3
-14 -19 -31 -35 -39 -17 -8 -38 -18 -47 -23 -10 -4 -27 -8 -39 -8 -18 0 -20 4
-15 28 17 70 41 112 64 112 41 0 38 29 -9 76 -40 41 -67 53 -82 38z"/>
<path d="M3563 5530 c0 -25 2 -35 4 -22 2 12 2 32 0 45 -2 12 -4 2 -4 -23z"/>
<path d="M4095 5483 c-55 -37 -84 -71 -96 -116 -32 -118 70 -174 200 -112 75
37 107 41 131 20 37 -34 16 -84 -53 -128 -26 -17 -30 -17 -53 -2 -26 17 -59
13 -67 -8 -8 -20 41 -69 69 -69 28 0 83 21 102 39 7 7 19 16 26 20 8 5 25 26
40 47 37 56 36 114 -4 154 -48 49 -97 48 -204 -4 -85 -41 -136 -24 -120 40 12
48 101 106 118 77 11 -17 44 -13 55 8 8 14 5 23 -13 40 -31 29 -82 27 -131 -6z"/>
<path d="M5528 5473 c6 -2 18 -2 25 0 6 3 1 5 -13 5 -14 0 -19 -2 -12 -5z"/>
<path d="M5685 5349 c-129 -12 -273 -43 -375 -81 -325 -121 -481 -219 -710
-448 -139 -138 -246 -282 -316 -425 -16 -33 -32 -61 -36 -63 -5 -2 -8 -9 -8
-16 0 -7 -9 -31 -20 -55 -26 -52 -80 -217 -80 -241 0 -10 -4 -21 -9 -24 -5 -3
-11 -23 -14 -43 -3 -21 -13 -85 -22 -143 -35 -217 -19 -486 42 -710 42 -156
158 -438 185 -448 4 -2 8 -8 8 -14 0 -12 78 -131 108 -166 11 -12 30 -38 43
-57 43 -62 232 -240 344 -323 132 -98 304 -187 475 -244 219 -74 344 -93 605
-93 185 1 258 9 405 47 63 17 127 32 143 35 15 3 30 9 33 14 3 5 12 9 19 9 14
0 61 20 185 78 48 23 236 137 250 152 3 3 23 19 45 35 67 49 75 57 163 140
123 117 284 339 360 495 60 124 100 243 136 395 40 175 49 264 43 450 -6 174
-14 241 -42 355 -9 36 -19 80 -22 98 -3 18 -9 35 -14 38 -5 3 -9 14 -9 24 0
26 -41 123 -112 266 -135 273 -404 560 -676 721 -86 51 -231 120 -317 152
-233 84 -522 116 -810 90z m445 -114 c187 -26 321 -66 496 -151 274 -131 515
-345 691 -611 54 -82 143 -260 143 -286 0 -7 4 -17 9 -22 8 -9 46 -128 71
-223 39 -147 55 -488 29 -626 -18 -96 -59 -269 -69 -291 -5 -11 -17 -42 -26
-70 -45 -138 -202 -397 -311 -512 l-58 -63 -80 0 c-98 0 -125 7 -125 30 0 35
-12 50 -40 50 -16 0 -30 7 -34 16 -3 9 -6 154 -6 323 0 347 9 306 -85 376 -22
16 -49 38 -59 48 -19 19 -18 19 5 12 13 -4 124 -59 247 -121 123 -63 228 -114
233 -114 6 0 17 7 25 15 14 13 13 16 -3 22 -10 3 -29 14 -43 23 -14 10 -45 28
-70 42 -25 14 -91 53 -148 87 -57 33 -105 61 -107 61 -8 0 -242 140 -267 160
-26 20 -28 27 -28 89 0 37 5 72 11 78 6 6 9 21 7 34 -3 23 -7 24 -89 27 -96 3
-120 -8 -100 -47 16 -28 14 -61 -3 -61 -8 0 -91 43 -183 96 -92 53 -188 108
-213 122 -25 14 -53 30 -62 36 -13 8 -23 8 -35 0 -10 -6 -38 -22 -63 -36 -50
-28 -104 -59 -289 -166 -68 -40 -125 -72 -128 -72 -2 0 -27 -15 -56 -33 -29
-18 -77 -46 -107 -62 -30 -16 -66 -37 -80 -46 -14 -9 -86 -51 -160 -94 -123
-71 -156 -90 -257 -146 -17 -10 -49 -28 -70 -41 -21 -13 -50 -30 -65 -37 -31
-16 -37 -38 -13 -48 15 -5 306 134 313 150 2 4 9 7 16 7 6 0 41 15 76 34 36
19 76 37 90 41 l25 8 -26 -24 c-15 -13 -52 -43 -83 -66 l-56 -43 0 -312 c0
-172 -4 -318 -8 -324 -4 -7 -18 -14 -32 -15 -18 -3 -28 -13 -34 -36 -6 -19
-18 -34 -30 -37 -36 -10 -136 -7 -157 5 -42 22 -159 169 -239 301 -52 84 -140
278 -140 306 0 10 -4 22 -9 28 -9 10 -52 182 -70 280 -14 77 -14 426 0 496 6
29 15 78 21 108 13 68 59 219 88 291 101 248 282 491 506 679 164 137 471 288
679 332 181 38 454 48 635 23z m-82 -2422 l2 -293 -180 0 -180 0 0 288 c0 159
3 292 7 296 4 3 84 5 177 4 l171 -3 3 -292z m-774 231 c12 -30 6 -111 -8 -123
-9 -7 -38 -11 -73 -9 l-58 3 -3 73 -3 72 69 0 c55 0 71 -3 76 -16z m186 -59
l0 -75 -69 0 c-46 0 -70 4 -74 13 -4 10 -3 87 1 125 2 8 23 12 72 12 l70 0 0
-75z m964 59 c9 -23 7 -107 -3 -122 -5 -9 -27 -12 -72 -10 -63 3 -63 3 -70 36
-4 19 -4 51 -2 73 l6 39 67 0 c53 0 69 -4 74 -16z m187 -1 c2 -31 3 -67 1
-100 l-2 -33 -63 0 c-36 0 -68 5 -75 12 -13 13 -16 78 -6 116 6 20 12 22 75
22 59 0 69 -3 70 -17z m-1339 -187 c14 -20 9 -113 -6 -125 -9 -7 -38 -11 -73
-9 l-58 3 -3 72 -3 72 53 3 c59 3 79 0 90 -16z m186 -59 l-3 -72 -58 -3 c-78
-4 -87 5 -82 79 2 32 6 63 8 67 3 4 35 5 71 4 l67 -4 -3 -71z m1153 49 c5 -69
3 -102 -5 -113 -11 -17 -118 -17 -134 -1 -13 13 -16 77 -6 115 5 18 14 23 53
25 70 5 91 -1 92 -26z m-187 8 c10 -27 6 -110 -6 -122 -16 -16 -123 -16 -136
1 -6 7 -8 37 -5 75 l6 62 67 0 c53 0 69 -4 74 -16z"/>
<path d="M5747 4923 c-61 -65 -166 -174 -233 -243 -66 -69 -151 -158 -189
-197 -37 -40 -76 -73 -85 -73 -9 0 -44 18 -77 39 -94 61 -152 91 -174 91 -28
0 -503 -489 -489 -504 5 -5 14 -3 22 3 13 11 223 170 274 207 14 11 45 34 67
51 76 59 80 45 31 -107 -15 -48 -20 -78 -14 -84 6 -6 46 27 111 92 56 56 105
102 109 102 11 0 19 -44 26 -152 4 -53 10 -102 14 -109 14 -21 37 -2 117 96
43 53 94 116 113 139 19 24 61 75 92 113 31 39 63 76 70 84 7 8 25 30 39 49
46 61 89 104 96 97 3 -4 2 -17 -4 -30 -24 -50 -53 -117 -53 -123 0 -6 -6 -20
-48 -114 -11 -25 -41 -97 -66 -160 -26 -63 -59 -139 -73 -170 -14 -30 -33 -76
-43 -103 -9 -26 -20 -50 -23 -54 -4 -3 -7 -16 -7 -27 1 -19 4 -17 29 12 15 18
34 45 42 60 7 15 39 69 71 120 32 51 58 95 58 98 0 3 11 20 25 38 14 18 25 36
25 39 0 3 32 56 70 117 39 61 70 113 70 116 0 3 9 17 20 31 l20 25 9 -23 c5
-13 14 -51 20 -84 6 -33 16 -78 21 -100 7 -34 19 -95 36 -182 2 -13 10 -23 17
-23 12 0 26 50 58 220 6 30 18 86 27 123 14 65 16 67 32 50 17 -18 120 -180
120 -188 0 -2 31 -53 69 -113 37 -59 70 -113 72 -118 2 -6 35 -61 74 -122 46
-75 75 -112 87 -112 23 0 23 6 -2 32 -11 12 -20 27 -20 33 0 6 -11 35 -25 63
-14 29 -25 56 -25 62 0 6 -4 18 -10 28 -18 32 -60 126 -60 134 0 4 -12 33 -26
65 -14 32 -29 67 -34 78 -4 11 -17 41 -29 67 -46 105 -93 229 -88 234 8 8 37
-23 137 -149 8 -11 20 -24 25 -31 6 -6 30 -36 55 -66 25 -30 49 -60 55 -66 5
-7 57 -70 115 -142 95 -118 140 -157 140 -119 0 19 19 189 25 225 3 17 9 32
14 32 4 0 52 -45 107 -100 54 -55 107 -100 117 -100 21 0 21 2 -1 42 -10 18
-21 44 -24 58 -3 14 -13 49 -21 78 -12 43 -12 52 -1 52 11 0 138 -90 209 -147
6 -5 35 -26 65 -48 30 -22 57 -42 60 -45 30 -32 111 -75 110 -57 0 1 -69 72
-153 158 -83 86 -194 200 -245 253 -67 69 -100 96 -117 96 -13 0 -70 -29 -127
-65 -57 -36 -110 -65 -119 -65 -9 0 -99 86 -200 192 -151 158 -344 359 -407
424 -32 33 -60 17 -175 -103z"/>
<path d="M6841 3826 c-8 -9 -11 -19 -7 -23 9 -9 29 13 24 27 -2 8 -8 7 -17 -4z"/>
<path d="M4935 3820 c3 -5 8 -10 11 -10 2 0 4 5 4 10 0 6 -5 10 -11 10 -5 0
-7 -4 -4 -10z"/>
<path d="M4965 3811 c5 -16 3 -20 -9 -15 -9 3 -16 1 -16 -5 0 -6 -8 -11 -17
-12 -12 -1 -9 -4 7 -8 38 -11 71 35 39 55 -8 4 -9 0 -4 -15z"/>
<path d="M6795 3779 c-4 -22 -4 -43 -1 -46 3 -4 6 6 6 20 0 19 4 25 15 21 22
-9 21 -84 -1 -84 -14 0 -14 -3 -4 -15 10 -12 10 -18 0 -30 -10 -12 -9 -16 4
-21 9 -3 22 -1 29 5 10 8 19 6 36 -5 22 -16 22 -16 16 20 -5 24 -3 36 4 36 6
0 11 6 11 12 0 7 -11 0 -25 -15 -28 -29 -40 -33 -51 -16 -3 6 6 22 20 34 26
22 27 25 12 48 -9 13 -13 27 -9 31 4 4 0 4 -10 1 -12 -5 -19 0 -27 19 -13 35
-17 33 -25 -15z"/>
<path d="M4896 3735 c-23 -34 -12 -45 16 -17 16 15 19 25 12 32 -8 8 -16 3
-28 -15z"/>
<path d="M7410 3743 c0 -4 5 -15 10 -23 8 -13 10 -13 10 2 0 9 -4 20 -10 23
-5 3 -10 3 -10 -2z"/>
<path d="M4346 3723 c-4 -10 1 -24 12 -36 18 -17 20 -17 26 -2 5 13 2 16 -10
11 -13 -5 -15 -1 -12 19 6 28 -6 34 -16 8z"/>
<path d="M4968 3720 c25 -24 32 -25 32 -6 0 8 -7 17 -16 20 -31 12 -38 6 -16
-14z"/>
<path d="M7396 3705 c4 -8 8 -15 10 -15 2 0 4 7 4 15 0 8 -4 15 -10 15 -5 0
-7 -7 -4 -15z"/>
<path d="M6770 3701 c0 -6 5 -13 10 -16 6 -3 10 1 10 9 0 9 -4 16 -10 16 -5 0
-10 -4 -10 -9z"/>
<path d="M4910 3670 c-16 -16 -30 -37 -29 -47 0 -14 2 -15 6 -3 7 20 33 44 56
53 26 10 21 -5 -18 -48 -21 -24 -31 -43 -25 -49 11 -11 40 16 40 38 0 9 6 16
13 16 20 0 37 -22 38 -49 1 -24 2 -24 8 4 5 23 3 32 -11 39 -22 11 -24 28 -3
20 21 -9 19 8 -5 34 -27 29 -33 28 -70 -8z"/>
<path d="M7091 3677 c-6 -8 -8 -17 -4 -20 7 -8 33 11 33 24 0 13 -16 11 -29
-4z"/>
<path d="M7380 3660 c0 -19 3 -21 12 -12 9 9 9 15 0 24 -9 9 -12 7 -12 -12z"/>
<path d="M7410 3660 c0 -13 7 -20 20 -20 23 0 26 10 8 28 -18 18 -28 15 -28
-8z"/>
<path d="M4335 3660 c-4 -6 1 -20 11 -31 11 -12 13 -19 5 -19 -7 0 -10 -4 -7
-9 7 -11 66 16 66 30 0 5 -3 8 -7 7 -12 -2 -47 14 -54 25 -4 5 -10 4 -14 -3z"/>
<path d="M4635 3625 c-4 -25 -11 -42 -16 -39 -14 8 -11 -10 6 -32 15 -20 15
-21 19 29 1 6 6 15 11 19 6 5 5 8 -3 8 -7 0 -10 5 -7 10 13 22 34 -10 29 -43
-5 -30 -5 -31 10 -13 20 24 20 31 1 50 -8 8 -15 17 -15 21 0 4 -6 13 -14 21
-13 12 -16 8 -21 -31z"/>
<path d="M7104 3624 c3 -9 6 -23 6 -31 0 -9 3 -13 6 -10 4 3 15 2 25 -4 27
-14 24 5 -3 25 -13 9 -17 14 -10 11 6 -3 12 0 12 7 0 8 -9 14 -21 15 -15 1
-19 -2 -15 -13z"/>
<path d="M7397 3623 c-2 -4 4 -17 14 -27 16 -16 19 -17 19 -4 0 18 -26 43 -33
31z"/>
<path d="M4308 3613 c7 -3 16 -2 19 1 4 3 -2 6 -13 5 -11 0 -14 -3 -6 -6z"/>
<path d="M6770 3609 c-13 -8 -12 -9 4 -7 10 2 21 -3 24 -11 3 -10 0 -12 -11
-8 -10 4 -16 -2 -20 -19 -3 -18 0 -24 14 -24 11 0 19 5 19 12 0 9 3 8 13 -1
10 -11 10 -14 0 -18 -7 -3 -13 -14 -14 -26 0 -12 -3 -16 -6 -9 -2 6 -11 12
-18 12 -8 0 -19 8 -24 18 -9 15 -10 15 -11 -5 0 -12 5 -25 10 -28 6 -3 10 -16
10 -28 0 -18 2 -19 10 -7 7 12 13 11 34 -9 21 -19 28 -22 40 -12 17 14 11 41
-9 41 -24 0 -27 20 -10 56 22 46 41 39 38 -15 -1 -28 2 -41 12 -41 15 0 28 27
19 41 -3 5 0 9 6 9 17 0 24 -31 12 -51 -7 -10 -9 -25 -6 -34 7 -17 44 -21 44
-5 0 7 6 7 20 0 13 -7 20 -7 20 -1 0 18 -36 31 -48 19 -7 -7 -15 -8 -19 -4 -4
4 0 12 9 17 15 8 16 13 5 32 -6 12 -14 24 -17 27 -3 3 -19 22 -37 42 -27 32
-32 34 -36 17 -7 -27 -26 -24 -37 6 -10 27 -17 30 -40 14z"/>
<path d="M4965 3590 c3 -5 8 -10 11 -10 2 0 4 5 4 10 0 6 -5 10 -11 10 -5 0
-7 -4 -4 -10z"/>
<path d="M4368 3567 c-9 -7 -26 -19 -37 -27 -28 -20 -29 -70 -1 -70 11 0 20
-7 20 -15 0 -8 6 -15 14 -15 8 0 16 -7 20 -15 3 -8 12 -12 21 -9 19 7 20 -9 2
-25 -18 -14 -64 7 -71 31 -6 27 -26 22 -26 -7 0 -15 5 -23 13 -20 15 5 41 -14
50 -37 8 -22 27 -24 27 -3 0 9 7 18 15 21 8 4 15 11 15 16 0 6 7 16 17 23 10
8 14 19 9 30 -6 17 -7 17 -20 0 -10 -14 -17 -16 -32 -7 -10 6 -16 12 -12 12
13 0 -41 48 -59 52 -14 3 -10 7 15 18 17 8 32 18 32 22 0 5 7 8 16 8 9 0 14 5
12 12 -6 17 -21 19 -40 5z"/>
<path d="M4935 3560 c-22 -24 -15 -36 13 -21 17 9 19 6 20 -26 l2 -36 -21 22
c-36 38 -66 44 -99 19 -17 -12 -30 -27 -30 -34 0 -6 -8 -18 -17 -25 -14 -12
-16 -12 -8 0 4 8 -10 -3 -33 -25 -28 -26 -37 -41 -29 -46 7 -4 23 3 37 17 15
14 32 25 39 25 19 0 71 30 71 41 0 6 6 16 13 24 12 11 17 10 30 -6 9 -10 26
-19 36 -19 11 0 24 -7 29 -16 6 -12 16 -14 32 -9 l23 7 -27 17 c-24 14 -27 21
-22 50 3 18 2 31 -1 27 -3 -3 -14 3 -23 14 -17 20 -17 20 -35 0z m-52 -45 c-3
-9 -8 -14 -10 -11 -3 3 -2 9 2 15 9 16 15 13 8 -4z m-37 -62 c-11 -11 -19 6
-11 24 8 17 8 17 12 0 3 -10 2 -21 -1 -24z"/>
<path d="M7060 3570 c0 -5 5 -12 10 -15 6 -4 8 -11 5 -16 -4 -5 -2 -9 3 -9 13
0 29 -42 24 -63 -3 -13 -10 -17 -23 -14 -15 4 -19 0 -19 -18 0 -21 -26 -42
-38 -30 -3 3 0 5 6 5 7 0 12 5 12 10 0 6 -9 10 -20 10 -11 0 -20 -7 -20 -15 0
-16 -16 -20 -24 -6 -9 14 -42 2 -66 -24 -14 -15 -28 -21 -39 -17 -13 5 -12 2
3 -13 13 -14 21 -16 23 -8 7 19 53 -15 53 -38 0 -11 6 -19 13 -20 33 -2 51 -9
59 -23 5 -9 15 -16 22 -16 8 0 19 -7 26 -15 9 -11 16 -12 25 -5 6 5 15 7 18 3
4 -3 7 2 7 12 0 14 -3 15 -14 6 -15 -13 -49 -4 -40 10 3 5 18 9 34 9 16 0 32
5 35 10 3 6 15 10 26 10 15 0 20 6 17 23 -4 26 -58 39 -58 13 0 -8 6 -16 13
-19 6 -2 8 -8 4 -13 -4 -5 -12 -3 -16 4 -6 10 -14 9 -38 -4 -34 -20 -66 -13
-61 13 2 10 17 24 33 32 17 8 34 21 39 28 6 11 18 13 42 8 19 -3 34 -3 34 0 0
14 -30 35 -49 35 -14 0 -21 6 -21 19 0 26 18 37 26 17 3 -9 11 -16 16 -16 6 0
8 7 5 15 -4 8 -2 17 3 20 15 9 11 57 -5 79 -7 10 -18 16 -23 13 -4 -4 -20 0
-35 8 -15 8 -27 10 -27 5z m90 -72 c0 -4 -4 -8 -10 -8 -5 0 -10 7 -10 16 0 8
-4 12 -10 9 -11 -7 -14 8 -3 19 7 7 33 -21 33 -36z m-57 -105 c-7 -2 -19 -2
-25 0 -7 3 -2 5 12 5 14 0 19 -2 13 -5z m-113 -14 c0 -8 4 -8 15 1 10 9 22 9
42 2 24 -9 25 -11 7 -11 -13 -1 -24 -9 -27 -22 -5 -18 -11 -21 -37 -16 -17 4
-36 12 -44 19 -11 11 -11 15 3 25 20 16 41 16 41 2z"/>
<path d="M7386 3573 c-12 -12 -6 -43 9 -43 8 0 15 9 15 19 0 21 -13 34 -24 24z"/>
<path d="M7441 3554 c0 -11 3 -14 6 -6 3 7 2 16 -1 19 -3 4 -6 -2 -5 -13z"/>
<path d="M4685 3531 c-3 -5 -1 -12 5 -16 5 -3 10 1 10 9 0 18 -6 21 -15 7z"/>
<path d="M4405 3505 c7 -33 12 -41 21 -33 3 4 -2 19 -11 35 l-16 28 6 -30z"/>
<path d="M4630 3509 c0 -13 -4 -18 -11 -13 -9 5 -10 -1 -5 -20 5 -21 3 -26
-13 -26 -14 0 -22 -10 -27 -32 -4 -18 -7 -37 -6 -41 2 -5 -2 -6 -7 -3 -14 9
-41 -4 -41 -20 0 -8 10 -14 25 -14 18 0 28 7 35 25 5 14 15 24 22 23 6 -2 14
6 16 16 3 14 0 17 -12 13 -9 -4 -16 -2 -16 2 0 10 25 22 58 28 20 3 22 0 22
-38 0 -36 -3 -41 -19 -36 -13 3 -18 0 -15 -8 3 -7 1 -16 -5 -20 -17 -10 -13
-21 13 -33 23 -10 25 -8 35 33 6 24 11 57 11 74 0 16 5 31 12 33 9 3 9 6 0 12
-7 4 -12 2 -12 -3 0 -6 -4 -11 -9 -11 -5 0 -11 18 -15 40 -7 42 -36 58 -36 19z
m16 -46 c-11 -11 -19 6 -11 24 8 17 8 17 12 0 3 -10 2 -21 -1 -24z"/>
<path d="M7428 3523 c7 -3 16 -2 19 1 4 3 -2 6 -13 5 -11 0 -14 -3 -6 -6z"/>
<path d="M7350 3495 c0 -14 2 -25 4 -25 2 0 6 11 8 25 3 14 1 25 -3 25 -5 0
-9 -11 -9 -25z"/>
<path d="M5010 3494 c0 -8 5 -12 10 -9 6 3 10 10 10 16 0 5 -4 9 -10 9 -5 0
-10 -7 -10 -16z"/>
<path d="M7440 3498 c0 -4 7 -8 15 -8 8 0 15 4 15 8 0 5 -7 9 -15 9 -8 0 -15
-4 -15 -9z"/>
<path d="M6718 3473 c-7 -25 18 -67 34 -57 7 5 6 11 -5 18 -8 7 -17 23 -19 36
-3 24 -4 24 -10 3z"/>
<path d="M7400 3470 c0 -15 7 -20 25 -20 23 0 25 -4 25 -47 0 -58 12 -50 14 9
1 35 -3 46 -24 60 -32 23 -40 22 -40 -2z"/>
<path d="M4896 3455 c-4 -16 -13 -25 -26 -25 -13 0 -20 -7 -20 -20 0 -17 7
-20 47 -20 40 0 44 2 29 13 -18 13 -13 47 6 47 6 0 5 6 -2 15 -18 21 -27 19
-34 -10z"/>
<path d="M7325 3460 c-3 -5 -1 -10 4 -10 6 0 11 5 11 10 0 6 -2 10 -4 10 -3 0
-8 -4 -11 -10z"/>
<path d="M7348 3441 c-10 -10 -18 -23 -18 -29 0 -18 -39 -35 -53 -24 -8 7 -16
5 -25 -4 -7 -8 -8 -14 -2 -14 5 0 10 -7 10 -15 0 -8 6 -15 14 -15 21 0 29 -33
15 -64 l-12 -26 -19 31 c-10 17 -18 41 -16 52 2 17 -2 22 -19 21 -18 0 -23 5
-23 25 -1 14 -7 37 -15 51 l-14 25 -1 -30 c0 -16 11 -50 25 -73 16 -29 23 -52
19 -67 -4 -17 0 -27 15 -37 12 -7 21 -18 21 -25 0 -7 5 -13 11 -13 5 0 8 -4 5
-9 -4 -5 0 -12 6 -15 7 -4 2 -4 -12 -1 -14 2 -34 5 -45 5 -17 0 -17 2 -5 10
12 8 10 10 -9 10 -19 0 -22 4 -18 21 6 23 -1 49 -13 49 -4 0 -11 -11 -14 -24
-3 -13 -9 -31 -12 -40 -4 -11 0 -16 15 -16 14 0 19 -5 15 -14 -4 -10 1 -15 13
-14 10 0 34 -2 54 -6 27 -6 40 -4 52 9 19 18 22 35 7 35 -5 0 -10 11 -10 25 0
16 6 25 15 25 8 0 15 -9 15 -20 0 -29 21 -70 37 -70 7 0 13 -7 13 -16 0 -8 8
-23 17 -32 16 -16 16 -16 9 3 -4 11 -10 32 -13 47 -3 15 -9 25 -14 22 -5 -3
-9 13 -9 35 0 30 -4 41 -15 41 -8 0 -15 5 -15 10 0 6 7 10 15 10 11 0 15 12
14 48 -1 48 -3 48 -13 -1 -8 -32 -21 -28 -30 8 -5 21 1 32 34 64 22 21 40 41
40 44 0 13 -25 6 -42 -12z"/>
<path d="M4954 3439 c-3 -6 0 -15 7 -20 23 -14 30 -10 19 11 -12 23 -16 24
-26 9z"/>
<path d="M6862 3413 c2 -10 10 -18 18 -18 8 0 16 8 18 18 2 12 -3 17 -18 17
-15 0 -20 -5 -18 -17z"/>
<path d="M7415 3420 c-8 -13 4 -50 16 -50 5 0 9 14 9 30 0 30 -13 40 -25 20z"/>
<path d="M4458 3399 c-20 -21 -15 -28 17 -21 28 5 44 22 21 22 -8 0 -16 4 -18
8 -1 4 -10 0 -20 -9z"/>
<path d="M6800 3406 c0 -7 9 -16 20 -19 23 -6 26 3 8 21 -16 16 -28 15 -28 -2z"/>
<path d="M4780 3387 c0 -9 -6 -18 -12 -21 -7 -3 3 -3 22 0 l35 6 -28 -29 c-26
-25 -29 -26 -38 -10 -6 9 -17 17 -24 17 -8 0 -15 5 -15 10 0 6 -5 10 -10 10
-6 0 1 -18 15 -40 24 -38 24 -40 6 -50 -11 -5 -22 -6 -25 -1 -6 10 -54 3 -61
-9 -7 -11 5 -40 16 -40 5 0 9 6 9 13 0 6 13 12 30 13 18 1 40 12 56 28 15 14
35 26 44 26 10 0 20 7 24 15 3 8 13 15 22 15 13 0 14 3 4 15 -7 8 -9 15 -4 15
12 1 -16 16 -43 24 -17 5 -23 3 -23 -7z"/>
<path d="M4290 3370 c0 -5 4 -10 9 -10 6 0 13 5 16 10 3 6 -1 10 -9 10 -9 0
-16 -4 -16 -10z"/>
<path d="M4876 3358 c3 -4 9 -8 15 -8 5 0 9 4 9 8 0 5 -7 9 -15 9 -8 0 -12 -4
-9 -9z"/>
<path d="M6910 3320 c0 -5 5 -10 11 -10 5 0 7 5 4 10 -3 6 -8 10 -11 10 -2 0
-4 -4 -4 -10z"/>
<path d="M7384 3318 c-8 -13 -7 -82 2 -112 9 -28 24 0 24 47 0 20 5 37 10 37
7 0 7 6 0 20 -12 23 -25 26 -36 8z"/>
<path d="M4320 3301 c0 -14 5 -19 15 -14 17 6 15 25 -3 31 -7 2 -12 -5 -12
-17z"/>
<path d="M4560 3305 c0 -8 -7 -15 -16 -15 -18 0 -16 -31 2 -37 14 -5 64 39 64
56 0 6 -11 11 -25 11 -16 0 -25 -6 -25 -15z"/>
<path d="M4430 3220 c0 -53 -3 -70 -14 -70 -8 0 -13 -10 -13 -25 0 -30 1 -31
27 -5 16 16 20 33 20 95 0 43 -4 75 -10 75 -6 0 -10 -30 -10 -70z"/>
<path d="M4482 3235 c0 -16 2 -22 5 -12 2 9 2 23 0 30 -3 6 -5 -1 -5 -18z"/>
<path d="M7441 3244 c0 -11 3 -14 6 -6 3 7 2 16 -1 19 -3 4 -6 -2 -5 -13z"/>
<path d="M4367 3220 c-4 -16 -2 -40 3 -52 8 -21 9 -20 9 10 1 17 6 32 11 32 6
0 10 9 10 20 0 31 -27 23 -33 -10z"/>
<path d="M4617 3233 c-13 -13 -7 -32 8 -27 8 4 15 12 15 20 0 15 -12 19 -23 7z"/>
<path d="M4515 3200 c-39 -6 -39 -6 -10 -12 l30 -5 -27 -2 c-29 -1 -40 -21
-12 -21 8 0 12 -5 8 -11 -4 -7 0 -10 10 -7 10 1 17 8 18 13 2 16 31 33 46 27
9 -3 13 0 10 8 -5 16 -20 18 -73 10z"/>
<path d="M7410 3148 c0 -19 2 -20 10 -8 13 19 13 30 0 30 -5 0 -10 -10 -10
-22z"/>
<path d="M7198 3153 c6 -2 18 -2 25 0 6 3 1 5 -13 5 -14 0 -19 -2 -12 -5z"/>
<path d="M7310 3142 c0 -15 47 -72 53 -65 4 3 7 -2 7 -12 0 -10 2 -16 5 -13 8
7 -6 68 -14 63 -4 -2 -14 5 -21 16 -15 19 -30 25 -30 11z"/>
<path d="M4480 3130 c0 -5 5 -10 11 -10 5 0 7 5 4 10 -3 6 -8 10 -11 10 -2 0
-4 -4 -4 -10z"/>
<path d="M7240 3130 c0 -7 8 -10 19 -7 13 3 22 -1 25 -12 3 -11 4 -9 3 4 -2
22 -47 35 -47 15z"/>
<path d="M4365 3121 c-10 -17 12 -21 25 -6 10 12 10 15 -3 15 -9 0 -18 -4 -22
-9z"/>
<path d="M7332 2981 c-11 -6 -10 -10 4 -15 20 -8 32 0 18 14 -5 5 -15 5 -22 1z"/>
<path d="M4410 2963 c1 -30 28 -56 60 -58 l30 -3 -24 24 c-16 16 -29 22 -41
17 -15 -5 -17 -2 -13 15 4 12 2 22 -3 22 -5 0 -9 -8 -9 -17z"/>
<path d="M4769 2968 c-1 -7 -1 -19 0 -25 1 -8 -9 -13 -24 -13 -14 0 -28 -7
-31 -15 -4 -8 -12 -15 -20 -15 -8 0 -11 6 -8 15 4 8 2 15 -4 15 -5 0 -12 -7
-16 -15 -3 -8 -1 -15 4 -15 5 0 15 -7 24 -15 15 -15 46 -11 46 7 0 6 -7 8 -14
5 -10 -4 -13 -1 -9 9 7 18 32 18 39 -1 3 -8 14 -17 25 -20 21 -7 27 -45 7 -45
-9 0 -9 -3 0 -12 16 -16 17 -178 1 -178 -8 0 -9 24 -4 80 6 70 5 80 -9 80 -13
0 -16 -14 -16 -85 0 -71 3 -85 16 -85 11 0 13 -6 9 -19 -3 -11 -2 -22 3 -25 6
-3 12 4 16 17 10 38 7 267 -5 288 -7 15 -7 24 1 34 6 8 10 22 7 32 -4 14 -5
13 -6 -5 0 -13 -5 -21 -11 -17 -5 3 -7 12 -3 20 3 8 0 15 -6 15 -6 0 -12 -6
-12 -12z"/>
<path d="M6933 2950 c-2 -30 -2 -30 50 -31 29 -1 42 -4 30 -6 -13 -2 -23 -8
-23 -13 0 -4 9 -6 20 -3 14 4 21 -1 25 -20 8 -31 35 -44 48 -22 5 9 18 20 30
25 18 7 18 9 5 9 -10 1 -18 5 -18 11 0 5 -7 7 -16 3 -11 -4 -22 1 -31 13 -10
13 -26 19 -58 19 -27 0 -45 5 -45 12 0 6 8 10 18 8 9 -1 11 0 5 2 -7 3 -13 9
-13 14 0 5 -6 9 -12 9 -7 0 -14 -14 -15 -30z m137 -66 c0 -2 -7 -4 -15 -4 -8
0 -15 4 -15 10 0 5 7 7 15 4 8 -4 15 -8 15 -10z"/>
<path d="M7287 2949 c-18 -11 -14 -29 6 -29 7 0 13 9 14 20 1 11 1 20 0 20 -1
0 -10 -5 -20 -11z"/>
<path d="M4718 2943 c7 -3 16 -2 19 1 4 3 -2 6 -13 5 -11 0 -14 -3 -6 -6z"/>
<path d="M7320 2925 c0 -9 -7 -18 -15 -21 -8 -3 -17 -14 -20 -25 -4 -12 -16
-19 -31 -19 -26 0 -31 -9 -12 -28 18 -18 38 -15 39 6 0 14 2 14 9 -3 8 -19 9
-19 9 3 1 13 9 36 19 50 32 46 34 52 18 52 -9 0 -16 -7 -16 -15z"/>
<path d="M7235 2910 c-8 -13 -1 -24 14 -19 6 3 7 10 2 18 -6 10 -10 10 -16 1z"/>
<path d="M4635 2901 c3 -6 0 -11 -8 -11 -7 0 -20 -14 -28 -32 -19 -43 -38 -47
-37 -8 1 16 -2 34 -6 38 -5 4 -6 -19 -4 -50 3 -50 1 -58 -16 -60 -11 -2 -21
-9 -24 -16 -3 -9 2 -10 22 -2 19 7 26 6 26 -2 0 -9 3 -9 12 0 8 8 8 15 -2 27
-17 20 -5 32 15 15 21 -17 46 5 43 38 -4 30 17 41 25 12 3 -11 13 -20 22 -20
10 0 14 5 11 13 -3 6 -9 19 -12 27 -3 9 -14 22 -26 29 -11 7 -17 8 -13 2z"/>
<path d="M6934 2878 c3 -13 6 -26 6 -30 0 -19 18 -5 22 17 3 13 1 22 -3 19 -5
-3 -9 0 -9 5 0 6 -5 11 -11 11 -7 0 -9 -9 -5 -22z"/>
<path d="M4472 2878 c-14 -14 -16 -42 -2 -33 6 4 10 -8 10 -30 0 -22 4 -34 10
-30 6 4 8 11 5 16 -4 5 -1 9 4 9 6 0 11 18 11 40 0 41 -14 52 -38 28z"/>
<path d="M4740 2860 c0 -5 9 -10 20 -10 11 0 20 5 20 10 0 6 -9 10 -20 10 -11
0 -20 -4 -20 -10z"/>
<path d="M6984 2859 c-10 -17 13 -36 27 -22 12 12 4 33 -11 33 -5 0 -12 -5
-16 -11z"/>
<path d="M7170 2860 c0 -5 7 -10 15 -10 8 0 15 5 15 10 0 6 -7 10 -15 10 -8 0
-15 -4 -15 -10z"/>
<path d="M4713 2828 c-10 -17 -49 -38 -67 -38 -21 0 -30 -20 -17 -33 9 -9 17
-6 31 13 15 20 21 23 31 13 19 -19 29 -16 29 10 0 13 5 28 12 35 9 9 9 12 0
12 -6 0 -15 -6 -19 -12z"/>
<path d="M6937 2813 c-11 -10 -8 -83 3 -83 6 0 10 20 10 45 0 46 -2 50 -13 38z"/>
<path d="M7147 2814 c-14 -15 -6 -34 14 -34 14 0 19 5 17 17 -3 18 -20 27 -31
17z"/>
<path d="M7200 2809 c0 -7 3 -9 7 -6 3 4 13 1 21 -6 13 -10 14 -9 10 3 -6 19
-38 26 -38 9z"/>
<path d="M7254 2784 c-5 -19 -9 -22 -15 -12 -5 7 -9 11 -9 8 -7 -39 -6 -69 1
-64 5 3 9 12 9 20 0 8 4 14 9 14 5 0 11 8 15 18 3 9 9 23 12 30 3 6 1 12 -5
12 -6 0 -14 -12 -17 -26z"/>
<path d="M7200 2766 c0 -18 -33 -30 -60 -21 -14 4 -20 2 -20 -9 0 -20 31 -36
58 -30 16 5 21 1 24 -18 3 -12 4 3 4 35 0 31 -1 57 -3 57 -2 0 -3 -6 -3 -14z"/>
<path d="M4585 2740 c-3 -5 2 -10 13 -10 16 0 19 -7 18 -37 0 -21 -5 -41 -10
-45 -5 -3 -4 -20 4 -39 8 -18 16 -27 18 -20 2 6 -2 18 -8 26 -10 12 -10 18 0
30 18 22 19 78 1 92 -20 15 -28 16 -36 3z"/>
<path d="M4537 2733 c-11 -10 -9 -16 23 -53 34 -40 40 -24 9 26 -22 37 -23 37
-32 27z"/>
<path d="M4660 2730 c-12 -7 -12 -12 -2 -22 9 -9 15 -9 23 -1 6 6 18 9 25 6 8
-3 14 0 14 6 0 6 -4 11 -9 11 -5 0 -15 2 -23 5 -7 3 -20 1 -28 -5z"/>
<path d="M7070 2720 c0 -5 7 -10 15 -10 8 0 15 -9 15 -20 0 -11 -7 -20 -15
-20 -8 0 -15 -4 -15 -10 0 -14 27 -12 33 3 8 18 27 -12 19 -31 -4 -12 -1 -14
14 -8 15 6 17 5 7 -5 -15 -15 -17 -29 -3 -29 5 0 17 11 26 25 14 22 14 26 1
40 -9 8 -23 15 -31 15 -9 0 -16 7 -16 16 0 18 -23 44 -39 44 -6 0 -11 -4 -11
-10z"/>
<path d="M6943 2677 c-8 -16 -9 -27 -3 -27 6 0 10 -19 11 -42 l0 -43 17 38
c18 40 46 49 55 17 6 -22 37 -18 37 5 0 16 -23 25 -65 25 -29 0 -34 4 -37 27
l-3 28 -12 -28z"/>
<path d="M4657 2649 c-3 -12 -10 -18 -16 -14 -6 3 -11 1 -11 -5 0 -6 7 -13 15
-17 18 -6 45 25 38 44 -8 19 -20 16 -26 -8z"/>
<path d="M4704 2605 c-4 -9 -4 -18 -2 -21 9 -8 39 8 35 19 -6 18 -27 20 -33 2z"/>
<path d="M7079 2603 c-1 -5 -1 -16 0 -25 3 -21 -10 -23 -28 -5 -10 10 -11 6
-6 -18 4 -20 3 -26 -3 -17 -5 8 -13 14 -18 14 -5 0 -15 3 -22 6 -11 4 -11 6
-1 13 8 4 10 11 7 15 -4 3 -14 0 -22 -9 -13 -12 -13 -16 -2 -20 7 -3 16 -19
19 -36 4 -17 11 -31 16 -31 5 0 7 10 3 23 -5 19 -3 20 10 9 13 -10 18 -8 34
13 10 14 26 25 35 25 12 0 15 7 11 25 -4 22 -30 36 -33 18z"/>
<path d="M4665 2580 c-3 -6 2 -10 11 -10 14 0 15 -3 6 -12 -16 -16 -15 -29 2
-22 8 3 17 1 21 -5 3 -6 -1 -11 -11 -11 -13 0 -14 -3 -4 -15 13 -15 35 -11 25
6 -4 5 6 20 20 33 25 23 25 25 6 23 -12 -1 -21 -7 -21 -15 0 -7 -5 -10 -10 -7
-6 4 -8 10 -6 14 3 4 -4 12 -14 19 -12 7 -21 8 -25 2z"/>
<path d="M7087 2533 c-4 -3 -7 -11 -7 -17 0 -6 5 -5 12 2 6 6 9 14 7 17 -3 3
-9 2 -12 -2z"/>
<path d="M4731 2504 c0 -11 3 -14 6 -6 3 7 2 16 -1 19 -3 4 -6 -2 -5 -13z"/>
<path d="M8692 4675 c0 -16 2 -22 5 -12 2 9 2 23 0 30 -3 6 -5 -1 -5 -18z"/>
<path d="M3162 4390 c0 -14 2 -19 5 -12 2 6 2 18 0 25 -3 6 -5 1 -5 -13z"/>
<path d="M9398 4153 c7 -3 16 -2 19 1 4 3 -2 6 -13 5 -11 0 -14 -3 -6 -6z"/>
<path d="M3962 3930 c0 -14 2 -19 5 -12 2 6 2 18 0 25 -3 6 -5 1 -5 -13z"/>
<path d="M3001 3711 c-12 -8 -13 -22 -3 -88 6 -43 14 -111 18 -150 7 -72 7
-73 35 -73 25 0 29 4 29 30 0 16 4 39 9 52 5 13 12 35 15 51 4 15 10 27 15 27
9 0 27 -57 37 -117 6 -38 9 -43 34 -43 26 0 27 2 33 73 4 39 11 106 17 147 10
77 5 98 -24 87 -12 -5 -16 -21 -17 -64 0 -32 -4 -67 -8 -77 -6 -16 -10 -14
-24 17 -9 19 -17 48 -17 64 0 16 -6 38 -14 49 -21 27 -35 9 -49 -65 -17 -88
-46 -76 -47 20 0 43 -19 72 -39 60z"/>
<path d="M3323 3714 c-16 -7 -19 -314 -3 -315 6 0 38 0 73 -1 54 0 62 2 62 18
0 15 -9 20 -46 22 -41 3 -47 6 -52 28 -7 41 3 64 29 65 46 3 49 4 49 24 0 16
-8 21 -37 23 -30 3 -39 8 -44 27 -10 40 11 63 59 67 34 2 42 7 42 23 0 18 -7
20 -60 22 -33 1 -66 -1 -72 -3z"/>
<path d="M7821 3704 c0 -11 3 -14 6 -6 3 7 2 16 -1 19 -3 4 -6 -2 -5 -13z"/>
<path d="M8120 3535 l0 -135 65 0 c61 0 65 1 80 30 19 38 20 159 1 205 -15 35
-15 35 -80 35 l-66 0 0 -135z m100 75 c17 -32 8 -151 -12 -164 -12 -7 -21 -7
-28 0 -14 14 -20 143 -8 167 12 23 35 22 48 -3z"/>
<path d="M8355 3636 c-19 -45 -19 -156 -1 -201 14 -33 17 -35 64 -35 67 0 75
12 80 124 4 122 -5 140 -76 144 -52 3 -53 2 -67 -32z m90 -101 c0 -80 -2 -90
-19 -93 -27 -6 -36 15 -36 90 0 82 6 100 34 96 20 -3 21 -9 21 -93z"/>
<path d="M8690 3531 c0 -134 1 -139 20 -134 19 5 20 14 20 139 0 127 -1 134
-20 134 -19 0 -20 -7 -20 -139z"/>
<path d="M8800 3651 c0 -13 8 -21 23 -23 21 -3 22 -8 25 -113 3 -103 11 -133
34 -119 4 3 8 51 8 107 0 109 4 123 35 128 11 3 20 11 20 19 0 12 -16 16 -72
18 -67 3 -73 1 -73 -17z"/>
<path d="M3962 3190 c0 -14 2 -19 5 -12 2 6 2 18 0 25 -3 6 -5 1 -5 -13z"/>
<path d="M7750 2960 c0 -5 5 -10 11 -10 5 0 7 5 4 10 -3 6 -8 10 -11 10 -2 0
-4 -4 -4 -10z"/>
<path d="M3106 2945 c4 -8 7 -15 9 -15 2 0 5 7 9 15 3 9 0 15 -9 15 -9 0 -12
-6 -9 -15z"/>
<path d="M8838 2953 c7 -3 16 -2 19 1 4 3 -2 6 -13 5 -11 0 -14 -3 -6 -6z"/>
<path d="M9323 2953 c9 -2 23 -2 30 0 6 3 -1 5 -18 5 -16 0 -22 -2 -12 -5z"/>
<path d="M3162 2730 c0 -14 2 -19 5 -12 2 6 2 18 0 25 -3 6 -5 1 -5 -13z"/>
<path d="M7846 2569 c-37 -74 -33 -94 13 -70 12 7 26 6 42 -3 13 -7 43 -23 66
-35 52 -28 71 -49 52 -56 -8 -3 -72 -6 -143 -7 l-129 -3 -23 -45 c-26 -52 -18
-71 20 -50 18 9 29 10 38 3 13 -10 64 -40 160 -92 34 -18 48 -32 50 -50 2 -13
8 -26 15 -28 14 -5 59 62 69 102 7 26 6 27 -26 20 -28 -6 -46 -1 -98 26 -35
19 -68 42 -73 52 -9 15 -4 17 44 17 30 0 94 3 144 6 86 6 90 8 100 34 11 30
19 24 -160 123 -80 45 -96 58 -99 80 -6 42 -34 31 -62 -24z"/>
<path d="M3769 2552 c-98 -36 -143 -95 -142 -183 1 -52 38 -117 80 -140 30
-16 72 -14 91 4 22 23 -1 50 -37 43 -31 -7 -52 8 -75 52 -15 28 -15 38 -4 68
20 56 95 104 163 104 36 0 48 -5 68 -30 39 -45 42 -68 17 -102 -17 -23 -19
-32 -10 -44 17 -20 27 -18 55 11 30 29 31 59 6 117 -26 61 -49 83 -104 102
-56 19 -50 19 -108 -2z"/>
<path d="M8551 2164 c0 -11 3 -14 6 -6 3 7 2 16 -1 19 -3 4 -6 -2 -5 -13z"/>
<path d="M4068 2148 c-76 -20 -158 -122 -158 -195 0 -80 100 -162 183 -149
113 18 202 132 177 225 -14 55 -60 105 -108 119 -44 14 -44 14 -94 0z m123
-77 c35 -35 37 -70 8 -118 -53 -86 -148 -117 -202 -68 -50 47 -26 126 56 185
56 39 99 39 138 1z"/>
<path d="M7565 2101 c-82 -28 -122 -88 -112 -172 11 -89 111 -179 199 -179 31
0 85 26 113 54 22 22 45 75 45 104 0 117 -142 229 -245 193z m130 -104 c49
-48 55 -57 55 -95 0 -86 -89 -122 -161 -65 -58 45 -84 83 -84 124 0 55 35 89
92 89 39 0 49 -6 98 -53z"/>
<path d="M4450 1826 c0 -48 -137 -233 -171 -232 -38 2 -32 -27 14 -61 59 -45
77 -50 77 -25 0 12 -5 24 -10 27 -14 9 41 85 61 85 21 0 69 -48 69 -69 0 -9
-9 -34 -20 -56 -26 -52 -25 -69 6 -94 31 -25 44 -20 44 18 0 15 7 42 16 59 8
18 14 47 12 65 -3 28 0 32 24 35 65 8 96 78 63 141 -15 29 -152 141 -173 141
-7 0 -12 -15 -12 -34z m115 -101 c30 -29 32 -54 5 -83 -25 -26 -38 -27 -70 -6
-48 32 -52 43 -23 80 30 40 55 43 88 9z"/>
<path d="M7220 1803 c-42 -27 -80 -66 -74 -75 3 -4 15 -8 28 -8 26 0 43 -17
120 -120 44 -59 56 -82 54 -107 -1 -18 0 -35 3 -38 9 -8 97 52 109 74 8 16 8
21 -2 22 -28 3 -33 4 -48 14 -9 6 -46 51 -84 100 -60 80 -67 94 -61 123 7 37
-6 42 -45 15z"/>
<path d="M6951 1625 c-23 -14 -49 -25 -56 -25 -7 0 -15 -3 -17 -7 -1 -5 -36
-24 -75 -43 -40 -19 -75 -40 -77 -46 -2 -6 4 -26 15 -43 16 -27 22 -30 39 -21
11 6 18 16 14 21 -8 14 25 49 48 49 13 0 28 -20 50 -67 18 -38 43 -85 56 -107
20 -32 22 -43 13 -63 -24 -52 -2 -57 76 -16 44 23 50 29 42 45 -6 10 -14 16
-20 12 -5 -3 -16 0 -24 6 -15 12 -115 211 -115 228 0 5 14 16 32 23 24 10 33
10 36 1 6 -18 52 -15 52 3 0 20 -28 75 -38 75 -4 0 -27 -11 -51 -25z"/>
<path d="M5648 1613 c6 -2 18 -2 25 0 6 3 1 5 -13 5 -14 0 -19 -2 -12 -5z"/>
<path d="M6098 1613 c7 -3 16 -2 19 1 4 3 -2 6 -13 5 -11 0 -14 -3 -6 -6z"/>
<path d="M3561 1594 c0 -11 3 -14 6 -6 3 7 2 16 -1 19 -3 4 -6 -2 -5 -13z"/>
<path d="M4853 1584 c-3 -8 0 -21 7 -29 10 -12 10 -22 3 -38 -12 -25 -51 -112
-79 -175 -14 -33 -25 -45 -46 -49 -16 -3 -28 -11 -28 -18 0 -13 93 -65 116
-65 20 0 26 18 13 38 -10 16 -10 27 1 52 15 35 20 36 113 9 43 -12 51 -11 82
5 38 21 65 64 65 104 0 38 -43 86 -102 115 -142 68 -139 67 -145 51z m153
-112 c31 -23 35 -45 13 -81 -20 -33 -46 -39 -94 -21 -37 14 -41 36 -16 87 19
40 24 44 48 38 14 -3 36 -14 49 -23z"/>
<path d="M6409 1412 c-34 -4 -36 -13 -49 -186 -6 -77 -15 -147 -21 -157 -25
-47 1 -61 68 -37 36 13 42 28 18 48 -26 22 -18 50 20 66 75 31 119 11 108 -50
-5 -27 -4 -29 18 -22 13 4 39 9 57 13 36 6 45 37 15 48 -10 3 -56 64 -102 136
-47 71 -90 133 -95 137 -6 4 -23 6 -37 4z m41 -107 c0 -8 3 -15 8 -15 13 0 45
-67 38 -79 -4 -6 -23 -11 -42 -11 l-34 0 0 53 c0 30 3 57 7 60 11 12 23 8 23
-8z"/>
<path d="M5375 1390 c-44 -10 -70 -29 -99 -74 -22 -34 -26 -51 -26 -118 0 -77
1 -80 38 -118 44 -47 119 -73 152 -52 11 7 26 12 33 12 20 0 73 61 86 99 20
60 14 139 -14 186 -32 55 -100 81 -170 65z m104 -71 c26 -26 31 -38 31 -79 0
-55 -23 -116 -53 -142 -28 -25 -98 -24 -122 2 -20 22 -30 93 -21 144 4 20 22
51 40 71 44 46 82 47 125 4z"/>
<path d="M5833 1343 c-67 -4 -83 -21 -43 -45 18 -12 20 -24 20 -140 0 -118 -1
-128 -21 -138 -11 -6 -19 -19 -17 -28 3 -14 14 -16 68 -13 70 3 90 17 59 39
-14 10 -19 25 -19 63 l0 49 43 0 c52 0 72 -18 80 -73 8 -50 23 -67 58 -67 35
0 43 12 24 36 -8 10 -15 28 -15 40 0 12 -11 38 -25 58 -26 38 -31 56 -16 56
18 0 34 60 25 92 -18 60 -78 80 -221 71z m122 -49 c8 -4 22 -19 31 -35 14 -28
13 -31 -10 -54 -17 -17 -36 -25 -60 -25 -32 0 -36 3 -42 35 -10 57 1 85 35 85
16 0 37 -3 46 -6z"/>
</g>
</svg>
